HIERARCHY
ROOT hip
{
	OFFSET 0.000000 0.000000 0.000000 
	CHANNELS 6 Xposition Yposition Zposition Xrotation Zrotation Yrotation
	JOINT abdomen
	{
		OFFSET 0.000000 3.402643 0.000000 
		CHANNELS 3 Xrotation Zrotation Yrotation
		JOINT chest
		{
			OFFSET 0.000000 8.438565 -0.680529 
			CHANNELS 3 Xrotation Zrotation Yrotation
			JOINT neck
			{
				OFFSET 0.000000 10.207942 -0.272212 
				CHANNELS 3 Xrotation Zrotation Yrotation
				JOINT head
				{
					OFFSET 0.000000 3.130431 0.000000 
					CHANNELS 3 Xrotation Zrotation Yrotation
					End Site
					{
						OFFSET 0.000000 3.130435 0.000000 
					}
				}
			}
			JOINT lCollar
			{
				OFFSET 3.470700 6.669187 -0.816635 
				CHANNELS 3 Yrotation Zrotation Xrotation
				JOINT lShldr
				{
					OFFSET 3.198488 0.000000 0.000000 
					CHANNELS 3 Zrotation Yrotation Xrotation
					JOINT lForeArm
					{
						OFFSET 10.139888 0.000000 0.000000 
						CHANNELS 3 Yrotation Zrotation Xrotation
						JOINT lHand
						{
							OFFSET 8.370511 0.000000 0.000000 
							CHANNELS 3 Zrotation Yrotation Xrotation
							End Site
							{
								OFFSET 4.083176 0.000000 0.000000 
							}
						}
					}
				}
			}
			JOINT rCollar
			{
				OFFSET -3.470700 6.669187 -0.816635 
				CHANNELS 3 Yrotation Zrotation Xrotation
				JOINT rShldr
				{
					OFFSET -3.198488 0.000000 0.000000 
					CHANNELS 3 Zrotation Yrotation Xrotation
					JOINT rForeArm
					{
						OFFSET -10.139888 0.000000 0.000000 
						CHANNELS 3 Yrotation Zrotation Xrotation
						JOINT rHand
						{
							OFFSET -8.370511 0.000000 0.000000 
							CHANNELS 3 Zrotation Yrotation Xrotation
							End Site
							{
								OFFSET -4.083176 0.000000 0.000000 
							}
						}
					}
				}
			}
		}
	}
	JOINT lThigh
	{
		OFFSET 5.308129 -1.633274 1.361059 
		CHANNELS 3 Xrotation Zrotation Yrotation
		JOINT lShin
		{
			OFFSET -2.041588 -20.007561 0.000000 
			CHANNELS 3 Xrotation Zrotation Yrotation
			JOINT lFoot
			{
				OFFSET 0.000000 -19.190928 -1.224953 
				CHANNELS 3 Xrotation Yrotation Zrotation
				End Site
				{
					OFFSET 0.000000 -2.449906 4.627600 
				}
			}
		}
	}
	JOINT rThigh
	{
		OFFSET -5.308129 -1.633274 1.361059 
		CHANNELS 3 Xrotation Zrotation Yrotation
		JOINT rShin
		{
			OFFSET 2.041588 -20.007561 0.000000 
			CHANNELS 3 Xrotation Zrotation Yrotation
			JOINT rFoot
			{
				OFFSET 0.000000 -19.190928 -1.224953 
				CHANNELS 3 Xrotation Yrotation Zrotation
				End Site
				{
					OFFSET 0.000000 -2.449906 4.627600 
				}
			}
		}
	}
}
MOTION
Frames: 13
Frame Time: 0.016667
-0.202687 45.040146 0.388645 2.307450 -5.971750 1.409470 -24.328800 2.574320 -3.376600 17.819201 2.711750 -1.184150 10.244300 -4.050600 -6.101220 9.456560 4.101050 -3.074820 2.000000 -2.000000 0.000000 -49.421600 -48.719200 168.330002 129.483002 -0.121706 0.122856 0.044723 0.005386 -134.998001 -2.000000 2.000000 0.000000 86.717300 1.015870 171.682007 -26.240499 0.337475 0.060451 -0.077733 0.064569 -160.651993 -7.085964 3.809971 -0.429312 30.052650 3.234613 2.084742 -20.636507 6.646832 2.642827 -5.221294 12.324889 3.096434 25.095196 -2.542277 -2.025280 -15.855046 -6.045550 -1.713017 
-0.153403 45.029091 0.389019 2.236410 -5.376790 0.004268 -24.259100 2.572000 -3.467000 17.838200 2.955660 -1.233840 9.850870 -4.352440 -5.455950 9.338070 3.985400 -2.732720 2.000000 -2.000000 0.000000 -49.607101 -48.808399 167.783997 129.912003 -0.120861 0.122154 0.044715 0.005140 -135.085999 -2.000000 2.000000 0.000000 -93.204201 179.250000 -7.312680 -27.041300 0.336619 0.062158 -0.078345 0.065943 -161.188995 -6.550272 3.063699 0.133863 29.679279 3.233050 2.078797 -20.522415 7.272990 2.888503 -5.307271 11.640334 3.682515 25.733053 -2.552056 -2.045994 -16.104879 -5.396011 -1.459267 
-0.090730 45.037449 0.371056 2.471620 -5.327100 -1.040980 -24.128500 2.822320 -3.494740 18.062901 3.053750 -1.197200 9.702880 -4.588220 -4.973310 9.396210 3.916840 -2.481140 2.000000 -2.000000 0.000000 -49.891998 -49.386398 167.003998 130.479004 -0.119755 0.121219 0.044706 0.004866 -135.184006 -2.000000 2.000000 0.000000 -93.438698 178.927002 -7.692770 -26.533501 0.337165 0.061077 -0.078424 0.066117 -161.257996 -6.614837 3.025097 0.743541 29.592058 3.217296 2.066041 -20.721785 7.179268 2.937101 -5.653236 11.357253 3.328745 25.869686 -2.563673 -2.055972 -15.923286 -4.415986 -1.098161 
-0.084682 45.038731 0.370258 2.589310 -5.326620 -2.565530 -24.040100 3.007890 -3.111890 18.160801 2.995430 -0.984475 9.734610 -4.759810 -4.394800 9.434140 3.770680 -2.160250 2.000000 -2.000000 0.000000 -49.561901 -49.914700 166.582993 131.035995 -0.118677 0.120290 0.044727 0.005495 -134.959000 -2.000000 2.000000 0.000000 86.815002 0.693698 171.641998 -26.123301 0.337599 0.060200 -0.078367 0.065992 -161.209000 -6.406766 3.041022 1.664461 29.556124 3.195270 2.090101 -20.967567 7.440745 3.117124 -5.683142 11.259925 3.681931 25.870314 -2.561136 -2.065142 -15.794559 -3.666453 -0.803509 
-0.057727 45.056458 0.365993 2.943840 -5.617620 -3.042850 -24.093599 3.215710 -3.251540 18.141199 3.005150 -1.015200 9.342100 -4.347910 -3.614260 9.328280 3.985490 -1.766600 2.000000 -2.000000 0.000000 -49.767502 -50.160099 166.056000 131.679993 -0.117440 0.119201 0.044748 0.006096 -134.744003 -2.000000 2.000000 0.000000 86.726601 0.110455 170.498001 -25.488600 0.338258 0.058836 -0.077145 0.063214 -160.125000 -6.799259 3.440120 2.183046 29.674152 3.193223 2.088165 -20.893103 7.397686 3.140364 -5.899616 11.601973 4.170366 25.548246 -2.539508 -2.056247 -15.557064 -3.703708 -0.793117 
-0.041349 45.048496 0.361217 3.110450 -5.577760 -3.691760 -24.082701 3.206450 -3.332000 18.180300 3.024750 -1.053030 9.305500 -4.317760 -2.874770 9.278840 3.927550 -1.374970 2.000000 -2.000000 0.000000 -49.277802 -50.025600 165.089005 132.294998 -0.116271 0.118148 0.044686 0.004156 -135.436996 -2.000000 2.000000 0.000000 86.931000 -0.402950 168.720001 -24.258101 0.339493 0.056172 -0.075689 0.059703 -158.766998 -6.878092 3.338701 2.234884 29.696207 3.180481 2.113861 -21.166471 7.730824 3.333089 -6.028765 11.519905 4.138021 25.480524 -2.529295 -2.055279 -15.370561 -3.509782 -0.702393 
-0.029267 45.049530 0.336839 3.258900 -5.801210 -3.611290 -24.180901 3.047170 -3.727810 18.014099 2.985340 -1.274900 9.608020 -5.032680 -2.199140 9.295110 3.518980 -1.001770 2.000000 -2.000000 0.000000 -48.541302 -49.315102 164.054001 132.979004 -0.114985 0.116965 0.044633 0.000027 -136.912003 -2.000000 2.000000 0.000000 87.057297 -1.015290 167.477997 -22.510000 0.341148 0.052344 -0.075096 0.058202 -158.190994 -7.057267 3.602422 2.174552 29.773880 3.181329 2.093705 -21.308449 7.830275 3.383303 -6.058999 11.805721 4.299848 25.196804 -2.513014 -2.037292 -15.210833 -4.142812 -0.918180 
-0.047961 45.022923 0.267906 2.568280 -4.975490 -3.093990 -23.899401 2.729100 -3.607410 17.759300 3.209070 -1.289290 9.877520 -4.931920 -2.141060 9.431550 3.449850 -0.941223 2.000000 -2.000000 0.000000 -48.856400 -49.871201 164.279999 133.320999 -0.114347 0.116367 0.044660 -0.002954 -137.975998 -2.000000 2.000000 0.000000 87.240601 -1.143230 163.679001 -20.488501 0.342916 0.047856 -0.072637 0.051444 -155.623001 -6.345140 2.662450 2.080027 29.368700 3.195997 2.072987 -21.076162 7.939127 3.362819 -5.891751 10.967234 4.079516 26.181847 -2.586562 -2.065326 -15.879719 -3.920731 -0.869062 
-0.104100 45.010975 0.251135 2.973230 -5.607720 -3.142870 -23.895901 3.037110 -3.785570 17.876200 3.365460 -1.319300 10.364000 -4.912960 -1.629730 9.607960 3.487350 -0.682711 2.000000 -2.000000 0.000000 -48.904499 -49.774300 163.947998 133.544998 -0.113930 0.115972 0.044726 -0.005469 -138.875000 -2.000000 2.000000 0.000000 86.867699 -1.537820 161.128998 -18.808800 0.344263 0.044081 -0.061238 0.046339 -153.709000 -6.818224 3.443998 2.085876 29.615108 3.194587 2.089177 -21.038252 8.149008 3.453637 -6.130696 11.690610 4.015524 25.765587 -2.535154 -2.080777 -15.574551 -4.104280 -0.912326 
-0.139412 45.001469 0.241473 3.081680 -5.704680 -2.816800 -23.751200 3.180470 -3.933230 18.012501 3.619490 -1.361570 11.902200 -4.612280 -1.240570 10.284700 3.666140 -0.493980 2.000000 -2.000000 0.000000 -49.392700 -49.715199 164.162994 133.565002 -0.113894 0.115938 0.044732 -0.005633 -138.932999 -2.000000 2.000000 0.000000 86.494003 -1.970090 157.914993 -17.422100 0.345292 0.040936 -0.059417 0.039807 -151.287003 -7.067060 3.490086 1.567628 29.735191 3.179326 2.103455 -21.143631 8.147935 3.462946 -6.135066 11.808189 4.004678 25.502625 -2.510743 -2.070420 -15.483403 -4.256959 -0.980784 
-0.167829 44.995289 0.200144 3.171390 -5.947970 -2.087030 -23.733101 3.218150 -3.916210 17.885401 3.589860 -1.358460 13.183700 -4.504590 -1.281710 10.754100 3.632660 -0.496754 2.000000 -2.000000 0.000000 -50.077599 -49.791000 165.158997 133.710999 -0.113623 0.115679 0.044822 -0.007791 -139.705002 -2.000000 2.000000 0.000000 86.305801 -2.481530 155.112000 -16.006001 0.346264 0.037700 -0.058407 0.035634 -149.753998 -7.426430 3.945754 1.659777 29.834335 3.173400 2.111014 -20.955200 7.775401 3.307611 -6.259453 12.116744 3.529966 25.317797 -2.489872 -2.059501 -15.324790 -4.849978 -1.196543 
-0.215000 44.989777 0.179218 3.091710 -5.743640 -1.784720 -23.653299 3.088230 -3.735810 17.690300 3.384440 -1.301870 14.021700 -4.069090 -1.111780 11.049500 3.813960 -0.426233 2.000000 -2.000000 0.000000 -50.680199 -48.939800 165.860001 133.789001 -0.113479 0.115541 0.044840 -0.008146 -139.832001 -2.000000 2.000000 0.000000 86.274101 -3.267570 152.785995 -15.390800 0.346661 0.036287 -0.057115 0.029395 -147.477997 -7.385983 3.874032 1.991212 29.765036 3.175304 2.102052 -20.968660 7.540036 3.199982 -6.230870 11.995559 3.745948 25.434422 -2.497219 -2.049272 -15.619898 -4.882238 -1.239662 
-0.293821 44.999157 0.144107 3.367630 -5.927320 -1.403000 -23.448700 3.110050 -3.707590 17.905600 3.375300 -1.278970 14.265800 -4.054910 -0.785023 11.137500 3.803360 -0.255579 2.000000 -2.000000 0.000000 -51.272900 -48.079399 166.298004 134.169998 -0.112778 0.114865 0.044854 -0.008419 -139.929993 -2.000000 2.000000 0.000000 86.275200 -4.021410 153.673004 -15.801000 0.346398 0.037230 -0.057717 0.032454 -148.591995 -7.907506 4.247303 1.979390 29.893282 3.176994 2.120968 -21.332926 6.630941 2.920667 -6.374918 12.316365 4.334321 25.021898 -2.490979 -2.026035 -15.776822 -4.809195 -1.196493 
